<svg xmlns="http://www.w3.org/2000/svg" viewBox="0 0 512 512">
  <rect width="512" height="512" rx="96" fill="#ff5500" />
  <path d="M150 160h212c22 0 40 18 40 40v112c0 22-18 40-40 40H150c-22 0-40-18-40-40V200c0-22 18-40 40-40z" fill="#fff" opacity="0.14"/>
  <path d="M181 188h150c10 0 18 8 18 18v100c0 10-8 18-18 18H181c-10 0-18-8-18-18V206c0-10 8-18 18-18z" fill="#fff"/>
  <path d="M200 210h112c8 0 14 6 14 14v76c0 8-6 14-14 14H200c-8 0-14-6-14-14v-76c0-8 6-14 14-14z" fill="#ff5500"/>
</svg>
